<svg width="29" height="29" viewBox="0 0 29 29" fill="none" xmlns="http://www.w3.org/2000/svg">
<path d="M14.5003 23.1374L14.2427 22.8544C10.9355 19.5432 7.62381 16.2365 4.31666 12.9253C3.57613 12.184 2.71813 11.872 1.6933 12.1919C0.913042 12.4358 0.402329 12.9752 0.125408 13.7398C0.0811467 13.8617 0.041992 13.9853 2.44149e-08 14.1084C2.75667e-08 14.3727 3.07186e-08 14.637 3.38704e-08 14.9013C0.187262 15.6999 0.724078 16.2558 1.28303 16.8127C4.93916 20.4541 8.58849 24.1022 12.231 27.7571C12.7752 28.3033 13.3251 28.8177 14.1036 29.0003L14.8964 29.0003C15.6755 28.8189 16.2248 28.3033 16.769 27.7571C20.5522 23.9615 24.3446 20.1744 28.1375 16.3879C28.7696 15.7567 29.1175 15.0239 28.9637 14.1226C28.8031 13.1828 28.2583 12.5203 27.3583 12.2095C26.3732 11.8698 25.4993 12.1256 24.7645 12.8493C23.9916 13.6104 23.2284 14.3824 22.4612 15.1492C19.8923 17.7174 17.3228 20.285 14.7562 22.8561" fill="#94D600"/>
<path d="M13.8856 8.55123C13.7755 8.4497 13.6785 8.36293 13.5837 8.27331C10.9689 5.79302 8.35573 3.31104 5.73861 0.833588C4.85792 -0.000169023 3.70314 -0.223639 2.71576 0.231808C1.0026 1.02246 0.670066 2.99568 2.04218 4.3019C4.92658 7.0465 7.81835 9.78315 10.7067 12.5232C11.1107 12.9061 11.5131 13.2906 11.9194 13.6712C13.1235 14.797 14.6437 14.8061 15.8434 13.6751C17.8068 11.8244 19.7605 9.96294 21.7183 8.10599C23.0393 6.85309 24.3598 5.59905 25.6825 4.34728C26.1705 3.88559 26.5207 3.35017 26.5587 2.66105C26.6364 1.26862 25.5787 0.0985204 24.1827 0.0145775C23.3423 -0.0359017 22.6353 0.252227 22.0298 0.827349C19.403 3.32238 16.7734 5.81458 14.145 8.30791C14.0644 8.38448 13.9827 8.45935 13.8851 8.5501L13.8856 8.55123Z" fill="#94D600"/>
</svg>
